<mxfile host="Electron" agent="Mozilla/5.0 (Windows NT 10.0; Win64; x64) AppleWebKit/537.36 (KHTML, like Gecko) draw.io/24.7.17 Chrome/128.0.6613.36 Electron/32.0.1 Safari/537.36" version="24.7.17">
  <diagram name="Page-1" id="LLR8_vKhNIfC2gltgwlN">
    <mxGraphModel dx="1750" dy="1275" grid="1" gridSize="10" guides="1" tooltips="1" connect="1" arrows="1" fold="1" page="1" pageScale="1" pageWidth="850" pageHeight="1100" math="0" shadow="0">
      <root>
        <mxCell id="0" />
        <mxCell id="1" parent="0" />
        <mxCell id="XsAAJI0qWLqSsGH0PPXS-18" value="" style="rounded=0;whiteSpace=wrap;html=1;strokeColor=none;fillColor=none;" parent="1" vertex="1">
          <mxGeometry x="280" y="270" width="1110" height="430" as="geometry" />
        </mxCell>
        <mxCell id="GPnyYZeinDMvyESiXHmM-77" value="&lt;font style=&quot;font-size: 24px;&quot;&gt;&lt;b&gt;取值&lt;/b&gt;&lt;/font&gt;&lt;div&gt;&lt;font style=&quot;font-size: 24px;&quot;&gt;&lt;b&gt;IFU&lt;/b&gt;&lt;/font&gt;&lt;/div&gt;" style="rounded=1;whiteSpace=wrap;html=1;fillColor=#B4DEDD;" parent="1" vertex="1">
          <mxGeometry x="360" y="380" width="140" height="70" as="geometry" />
        </mxCell>
        <mxCell id="GPnyYZeinDMvyESiXHmM-78" value="&lt;font style=&quot;font-size: 24px;&quot;&gt;&lt;b&gt;译码&lt;/b&gt;&lt;/font&gt;&lt;div&gt;&lt;font style=&quot;font-size: 24px;&quot;&gt;&lt;b&gt;IDU&lt;/b&gt;&lt;/font&gt;&lt;/div&gt;" style="rounded=1;whiteSpace=wrap;html=1;fillColor=#A7D6A8;" parent="1" vertex="1">
          <mxGeometry x="500" y="380" width="140" height="70" as="geometry" />
        </mxCell>
        <mxCell id="GPnyYZeinDMvyESiXHmM-79" value="&lt;font style=&quot;font-size: 24px;&quot;&gt;&lt;b style=&quot;&quot;&gt;执行&lt;/b&gt;&lt;/font&gt;&lt;div&gt;&lt;font style=&quot;font-size: 24px;&quot;&gt;&lt;b&gt;EXU&lt;/b&gt;&lt;/font&gt;&lt;/div&gt;" style="rounded=1;whiteSpace=wrap;html=1;fillColor=#FFFBC7;" parent="1" vertex="1">
          <mxGeometry x="640" y="380" width="140" height="70" as="geometry" />
        </mxCell>
        <mxCell id="GPnyYZeinDMvyESiXHmM-80" value="&lt;div&gt;&lt;font style=&quot;font-size: 24px;&quot;&gt;&lt;b&gt;访存&lt;/b&gt;&lt;/font&gt;&lt;/div&gt;&lt;div&gt;&lt;font style=&quot;font-size: 24px;&quot;&gt;&lt;b&gt;LSU&lt;/b&gt;&lt;/font&gt;&lt;/div&gt;" style="rounded=1;whiteSpace=wrap;html=1;fillColor=#FFCEBF;" parent="1" vertex="1">
          <mxGeometry x="780" y="380" width="140" height="70" as="geometry" />
        </mxCell>
        <mxCell id="GPnyYZeinDMvyESiXHmM-81" value="&lt;font style=&quot;font-size: 24px;&quot;&gt;&lt;b style=&quot;&quot;&gt;写回&lt;/b&gt;&lt;/font&gt;&lt;div&gt;&lt;font style=&quot;font-size: 24px;&quot;&gt;&lt;b&gt;WBU&lt;/b&gt;&lt;/font&gt;&lt;/div&gt;" style="rounded=1;whiteSpace=wrap;html=1;fillColor=#FFB5CE;" parent="1" vertex="1">
          <mxGeometry x="920" y="380" width="140" height="70" as="geometry" />
        </mxCell>
        <mxCell id="GPnyYZeinDMvyESiXHmM-102" value="" style="endArrow=none;html=1;rounded=0;strokeWidth=3;" parent="1" edge="1">
          <mxGeometry width="50" height="50" relative="1" as="geometry">
            <mxPoint x="290" y="350" as="sourcePoint" />
            <mxPoint x="1380" y="320" as="targetPoint" />
            <Array as="points">
              <mxPoint x="360" y="350" />
              <mxPoint x="360" y="320" />
              <mxPoint x="430" y="320" />
              <mxPoint x="430" y="350" />
              <mxPoint x="500" y="350" />
              <mxPoint x="500" y="320" />
              <mxPoint x="570" y="320" />
              <mxPoint x="570" y="350" />
              <mxPoint x="640" y="350" />
              <mxPoint x="640" y="320" />
              <mxPoint x="710" y="320" />
              <mxPoint x="710" y="350" />
              <mxPoint x="780" y="350" />
              <mxPoint x="780" y="320" />
              <mxPoint x="850" y="320" />
              <mxPoint x="850" y="350" />
              <mxPoint x="920" y="350" />
              <mxPoint x="920" y="320" />
              <mxPoint x="990" y="320" />
              <mxPoint x="990" y="350" />
              <mxPoint x="1060" y="350" />
              <mxPoint x="1060" y="320" />
              <mxPoint x="1130" y="320" />
              <mxPoint x="1130" y="350" />
              <mxPoint x="1200" y="350" />
              <mxPoint x="1200" y="320" />
              <mxPoint x="1270" y="320" />
              <mxPoint x="1270" y="350" />
              <mxPoint x="1330" y="350" />
              <mxPoint x="1330" y="320" />
            </Array>
          </mxGeometry>
        </mxCell>
        <mxCell id="GPnyYZeinDMvyESiXHmM-103" value="&lt;font style=&quot;font-size: 18px;&quot;&gt;50MHz CLK&lt;/font&gt;" style="text;html=1;align=center;verticalAlign=middle;resizable=0;points=[];autosize=1;strokeColor=none;fillColor=none;" parent="1" vertex="1">
          <mxGeometry x="330" y="270" width="120" height="40" as="geometry" />
        </mxCell>
        <mxCell id="GPnyYZeinDMvyESiXHmM-114" value="" style="endArrow=none;dashed=1;html=1;rounded=0;" parent="1" edge="1">
          <mxGeometry width="50" height="50" relative="1" as="geometry">
            <mxPoint x="500" y="690" as="sourcePoint" />
            <mxPoint x="500" y="350" as="targetPoint" />
          </mxGeometry>
        </mxCell>
        <mxCell id="GPnyYZeinDMvyESiXHmM-115" value="" style="endArrow=none;dashed=1;html=1;rounded=0;" parent="1" edge="1">
          <mxGeometry width="50" height="50" relative="1" as="geometry">
            <mxPoint x="360" y="690" as="sourcePoint" />
            <mxPoint x="360" y="350" as="targetPoint" />
          </mxGeometry>
        </mxCell>
        <mxCell id="GPnyYZeinDMvyESiXHmM-116" value="" style="endArrow=none;dashed=1;html=1;rounded=0;" parent="1" edge="1">
          <mxGeometry width="50" height="50" relative="1" as="geometry">
            <mxPoint x="640" y="690" as="sourcePoint" />
            <mxPoint x="640" y="350" as="targetPoint" />
          </mxGeometry>
        </mxCell>
        <mxCell id="GPnyYZeinDMvyESiXHmM-117" value="" style="endArrow=none;dashed=1;html=1;rounded=0;" parent="1" edge="1">
          <mxGeometry width="50" height="50" relative="1" as="geometry">
            <mxPoint x="779" y="690" as="sourcePoint" />
            <mxPoint x="779.13" y="350" as="targetPoint" />
          </mxGeometry>
        </mxCell>
        <mxCell id="GPnyYZeinDMvyESiXHmM-118" value="" style="endArrow=none;dashed=1;html=1;rounded=0;" parent="1" edge="1">
          <mxGeometry width="50" height="50" relative="1" as="geometry">
            <mxPoint x="920" y="690" as="sourcePoint" />
            <mxPoint x="920" y="350" as="targetPoint" />
          </mxGeometry>
        </mxCell>
        <mxCell id="GPnyYZeinDMvyESiXHmM-119" value="" style="endArrow=none;dashed=1;html=1;rounded=0;" parent="1" edge="1">
          <mxGeometry width="50" height="50" relative="1" as="geometry">
            <mxPoint x="1060" y="690" as="sourcePoint" />
            <mxPoint x="1060" y="350" as="targetPoint" />
          </mxGeometry>
        </mxCell>
        <mxCell id="GPnyYZeinDMvyESiXHmM-121" value="" style="endArrow=none;dashed=1;html=1;rounded=0;" parent="1" edge="1">
          <mxGeometry width="50" height="50" relative="1" as="geometry">
            <mxPoint x="1200" y="690" as="sourcePoint" />
            <mxPoint x="1200" y="350" as="targetPoint" />
          </mxGeometry>
        </mxCell>
        <mxCell id="XsAAJI0qWLqSsGH0PPXS-16" value="" style="endArrow=none;dashed=1;html=1;rounded=0;" parent="1" edge="1">
          <mxGeometry width="50" height="50" relative="1" as="geometry">
            <mxPoint x="1330" y="690" as="sourcePoint" />
            <mxPoint x="1330" y="350" as="targetPoint" />
          </mxGeometry>
        </mxCell>
        <mxCell id="XsAAJI0qWLqSsGH0PPXS-21" value="&lt;font style=&quot;font-size: 24px;&quot;&gt;&lt;b&gt;取值&lt;/b&gt;&lt;/font&gt;&lt;div&gt;&lt;font style=&quot;font-size: 24px;&quot;&gt;&lt;b&gt;IFU&lt;/b&gt;&lt;/font&gt;&lt;/div&gt;" style="rounded=1;whiteSpace=wrap;html=1;fillColor=#B4DEDD;" parent="1" vertex="1">
          <mxGeometry x="500" y="480" width="140" height="70" as="geometry" />
        </mxCell>
        <mxCell id="XsAAJI0qWLqSsGH0PPXS-22" value="&lt;font style=&quot;font-size: 24px;&quot;&gt;&lt;b&gt;译码&lt;/b&gt;&lt;/font&gt;&lt;div&gt;&lt;font style=&quot;font-size: 24px;&quot;&gt;&lt;b&gt;IDU&lt;/b&gt;&lt;/font&gt;&lt;/div&gt;" style="rounded=1;whiteSpace=wrap;html=1;fillColor=#A7D6A8;" parent="1" vertex="1">
          <mxGeometry x="640" y="480" width="140" height="70" as="geometry" />
        </mxCell>
        <mxCell id="XsAAJI0qWLqSsGH0PPXS-23" value="&lt;font style=&quot;font-size: 24px;&quot;&gt;&lt;b style=&quot;&quot;&gt;执行&lt;/b&gt;&lt;/font&gt;&lt;div&gt;&lt;font style=&quot;font-size: 24px;&quot;&gt;&lt;b&gt;EXU&lt;/b&gt;&lt;/font&gt;&lt;/div&gt;" style="rounded=1;whiteSpace=wrap;html=1;fillColor=#FFFBC7;" parent="1" vertex="1">
          <mxGeometry x="780" y="480" width="140" height="70" as="geometry" />
        </mxCell>
        <mxCell id="XsAAJI0qWLqSsGH0PPXS-24" value="&lt;div&gt;&lt;font style=&quot;font-size: 24px;&quot;&gt;&lt;b&gt;访存&lt;/b&gt;&lt;/font&gt;&lt;/div&gt;&lt;div&gt;&lt;font style=&quot;font-size: 24px;&quot;&gt;&lt;b&gt;LSU&lt;/b&gt;&lt;/font&gt;&lt;/div&gt;" style="rounded=1;whiteSpace=wrap;html=1;fillColor=#FFCEBF;" parent="1" vertex="1">
          <mxGeometry x="920" y="480" width="140" height="70" as="geometry" />
        </mxCell>
        <mxCell id="XsAAJI0qWLqSsGH0PPXS-25" value="&lt;font style=&quot;font-size: 24px;&quot;&gt;&lt;b style=&quot;&quot;&gt;写回&lt;/b&gt;&lt;/font&gt;&lt;div&gt;&lt;font style=&quot;font-size: 24px;&quot;&gt;&lt;b&gt;WBU&lt;/b&gt;&lt;/font&gt;&lt;/div&gt;" style="rounded=1;whiteSpace=wrap;html=1;fillColor=#FFB5CE;" parent="1" vertex="1">
          <mxGeometry x="1060" y="480" width="140" height="70" as="geometry" />
        </mxCell>
        <mxCell id="XsAAJI0qWLqSsGH0PPXS-27" value="&lt;font style=&quot;font-size: 24px;&quot;&gt;&lt;b&gt;取值&lt;/b&gt;&lt;/font&gt;&lt;div&gt;&lt;font style=&quot;font-size: 24px;&quot;&gt;&lt;b&gt;IFU&lt;/b&gt;&lt;/font&gt;&lt;/div&gt;" style="rounded=1;whiteSpace=wrap;html=1;fillColor=#B4DEDD;" parent="1" vertex="1">
          <mxGeometry x="640" y="580" width="140" height="70" as="geometry" />
        </mxCell>
        <mxCell id="XsAAJI0qWLqSsGH0PPXS-28" value="&lt;font style=&quot;font-size: 24px;&quot;&gt;&lt;b&gt;译码&lt;/b&gt;&lt;/font&gt;&lt;div&gt;&lt;font style=&quot;font-size: 24px;&quot;&gt;&lt;b&gt;IDU&lt;/b&gt;&lt;/font&gt;&lt;/div&gt;" style="rounded=1;whiteSpace=wrap;html=1;fillColor=#A7D6A8;" parent="1" vertex="1">
          <mxGeometry x="780" y="580" width="140" height="70" as="geometry" />
        </mxCell>
        <mxCell id="XsAAJI0qWLqSsGH0PPXS-29" value="&lt;font style=&quot;font-size: 24px;&quot;&gt;&lt;b style=&quot;&quot;&gt;执行&lt;/b&gt;&lt;/font&gt;&lt;div&gt;&lt;font style=&quot;font-size: 24px;&quot;&gt;&lt;b&gt;EXU&lt;/b&gt;&lt;/font&gt;&lt;/div&gt;" style="rounded=1;whiteSpace=wrap;html=1;fillColor=#FFFBC7;" parent="1" vertex="1">
          <mxGeometry x="920" y="580" width="140" height="70" as="geometry" />
        </mxCell>
        <mxCell id="XsAAJI0qWLqSsGH0PPXS-30" value="&lt;div&gt;&lt;font style=&quot;font-size: 24px;&quot;&gt;&lt;b&gt;访存&lt;/b&gt;&lt;/font&gt;&lt;/div&gt;&lt;div&gt;&lt;font style=&quot;font-size: 24px;&quot;&gt;&lt;b&gt;LSU&lt;/b&gt;&lt;/font&gt;&lt;/div&gt;" style="rounded=1;whiteSpace=wrap;html=1;fillColor=#FFCEBF;" parent="1" vertex="1">
          <mxGeometry x="1060" y="580" width="140" height="70" as="geometry" />
        </mxCell>
        <mxCell id="XsAAJI0qWLqSsGH0PPXS-31" value="&lt;font style=&quot;font-size: 24px;&quot;&gt;&lt;b style=&quot;&quot;&gt;写回&lt;/b&gt;&lt;/font&gt;&lt;div&gt;&lt;font style=&quot;font-size: 24px;&quot;&gt;&lt;b&gt;WBU&lt;/b&gt;&lt;/font&gt;&lt;/div&gt;" style="rounded=1;whiteSpace=wrap;html=1;fillColor=#FFB5CE;" parent="1" vertex="1">
          <mxGeometry x="1200" y="580" width="130" height="70" as="geometry" />
        </mxCell>
      </root>
    </mxGraphModel>
  </diagram>
</mxfile>
